<?xml version="1.0" encoding="UTF-8"?>
<svg version="1.1" xmlns="http://www.w3.org/2000/svg" width="600" height="600">
<path d="M0 0 C7.71340353 5.47929888 14.37526329 12.0876403 21.03277588 18.77207947 C22.10916043 19.84543706 23.18597705 20.91836149 24.26318336 21.99089438 C27.1978972 24.91539024 30.12641932 27.8460162 33.05387926 30.77777088 C36.22136987 33.94773994 39.39461203 37.11194305 42.56707764 40.27693176 C48.77106473 46.46820239 54.96959683 52.66490631 61.16605595 58.86371034 C66.20326239 63.90270294 71.24223815 68.93991968 76.28246307 73.97589302 C77.00096976 74.69380452 77.71947645 75.41171601 78.45975606 76.15138241 C79.91956517 77.60997972 81.37937544 79.06857586 82.83918688 80.52717084 C96.51216396 94.18928488 110.17863106 107.85789656 123.84312531 121.52849413 C136.33793695 134.02847801 148.84094969 146.52022187 161.34784439 159.00811499 C174.20214299 171.84303426 187.0508703 184.6835064 199.89360404 197.52999789 C207.09911189 204.7374171 214.30679929 211.9426236 221.52033234 219.14201164 C227.65874304 225.26850667 233.7918694 231.40023245 239.91826943 237.5387389 C243.04233435 240.66869012 246.16873921 243.79620336 249.30174255 246.91720963 C252.17262003 249.77722136 255.03641538 252.64413538 257.89485142 255.51658017 C258.92703388 256.55140754 259.96172485 257.58374055 260.99923423 258.61322712 C271.73882592 269.27555074 280.31170657 279.79716298 280.5 295.4375 C280.24291183 313.55430538 269.44580534 323.86406574 257.18995667 336.07073975 C256.11247426 337.15124907 255.03542501 338.23219049 253.95876735 339.31352162 C251.02287023 342.25963727 248.08084226 345.19956072 245.13768613 348.13842225 C241.95544708 351.31818295 238.77897379 354.50369507 235.60171509 357.68843079 C229.38638114 363.91648147 223.16561356 370.13907691 216.94274611 376.3595995 C211.88420737 381.41635211 206.82744443 386.47487398 201.77192497 391.53464508 C201.05123811 392.25592713 200.33055126 392.97720917 199.5880254 393.72034825 C198.12379109 395.18579436 196.65955795 396.65124164 195.19532596 398.11669007 C181.48027686 411.84260233 167.75872996 425.56200448 154.03519731 439.27943388 C141.48671451 451.82274443 128.94647164 464.37425615 116.41007961 476.9296498 C103.52543972 489.83366886 90.6352471 502.73211683 77.73903507 515.62457108 C70.50367019 522.85802458 63.27051811 530.09365782 56.04318428 537.33513641 C49.89290062 543.49733556 43.7373864 549.65425076 37.57509131 555.80443922 C34.43298848 558.9406556 31.29332379 562.07921245 28.16016579 565.22436714 C25.28905139 568.1063468 22.41103513 570.98124542 19.52748763 573.85078362 C18.48862253 574.88700368 17.45225217 575.92573254 16.4187277 576.9672794 C5.60953963 587.85449031 -3.64615397 595.19390788 -19.375 595.4375 C-37.55657822 595.27560518 -47.85100838 584.45714777 -60.10197449 572.16545105 C-61.18589851 571.08527155 -62.27025194 570.00552281 -63.35499269 568.92616349 C-66.31057597 565.98272571 -69.25997503 563.03316077 -72.20830619 560.08246124 C-75.39833324 556.89202389 -78.59408716 553.70733122 -81.78904724 550.52183533 C-88.03757059 544.28987459 -94.28057554 538.05241435 -100.52138134 531.81272598 C-105.59546109 526.73959861 -110.67112139 521.66805799 -115.74788857 516.59762001 C-130.15635654 502.20674856 -144.56064102 487.81170848 -158.9595625 473.41128512 C-159.73466225 472.63610547 -160.50976199 471.86092581 -161.30834961 471.06225586 C-162.08439949 470.28612422 -162.86044937 469.50999257 -163.66001592 468.71034179 C-176.24329687 456.12624755 -188.83653094 443.55216621 -201.43430241 430.98257979 C-214.38425675 418.0613692 -227.32672256 405.13269924 -240.26144964 392.19624501 C-247.51765848 384.93937297 -254.77689866 377.68559501 -262.04421043 370.43984032 C-268.22947539 364.27280633 -274.40773526 358.09885849 -280.57710763 351.91592427 C-283.72232198 348.76419113 -286.87062477 345.61572139 -290.02778625 342.47595215 C-292.92250253 339.59701845 -295.8076868 336.70886569 -298.68581692 333.81335322 C-299.72387658 332.77223519 -300.76526551 331.73442277 -301.8104414 330.70044889 C-311.57778844 321.03081898 -320.07302523 311.1912204 -320.38085938 296.89868164 C-320.31911141 274.25518704 -305.87367354 262.5784967 -290.75195312 247.52490234 C-288.99667094 245.77018497 -287.24183035 244.01502576 -285.48739624 242.25946045 C-281.72432298 238.49593352 -277.95823021 234.73546919 -274.18928528 230.97782516 C-268.74018629 225.54505418 -263.29668845 220.10669877 -257.85449523 214.6670111 C-249.02246995 205.83935153 -240.18599761 197.01615763 -231.34667969 188.19580078 C-222.76554605 179.63305515 -214.18653786 171.06818914 -205.61035156 162.50048828 C-205.08076814 161.9714303 -204.55118471 161.44237233 -204.00555331 160.89728229 C-201.34851921 158.24285847 -198.69152655 155.58839318 -196.03455448 152.93390727 C-174.02945537 130.94950562 -152.01704428 108.97243905 -130 87 C-125.7781981 88.93987121 -122.83472017 91.83361442 -119.56323242 95.06689453 C-118.92705994 95.68831833 -118.29088745 96.30974213 -117.63543701 96.94999695 C-115.53607968 99.0048928 -113.44488954 101.06781614 -111.35546875 103.1328125 C-110.64077234 103.8381097 -109.92607594 104.54340691 -109.18972206 105.27007675 C-105.41100588 109.00126449 -101.63923579 112.73932876 -97.87231445 116.48242188 C-93.97875329 120.34821983 -90.06015256 124.18757682 -86.13546276 128.02173042 C-83.12232009 130.97512982 -80.12923097 133.94824635 -77.14119911 136.92702866 C-75.70501887 138.35161266 -74.26120408 139.76854247 -72.80974388 141.17755508 C-70.78137367 143.15005389 -68.78317783 145.14897294 -66.78979492 147.15673828 C-66.18468582 147.73263199 -65.57957672 148.3085257 -64.95613098 148.90187073 C-61.07753698 152.89013522 -61.07753698 152.89013522 -60.85108376 156.13158798 C-61.16764684 158.84201221 -61.84919374 161.42715321 -62.54296875 164.0625 C-65.06322998 174.74668438 -62.82047529 186.12314448 -57.57421875 195.56640625 C-52.21290547 203.97549452 -44.97285497 210.61801659 -36 215 C-35.71952954 236.50516103 -35.50799699 258.01002006 -35.37825394 279.51663971 C-35.31640681 289.50292642 -35.23211041 299.48807605 -35.09472656 309.47363281 C-34.97502177 318.17837012 -34.89767965 326.88228397 -34.87093806 335.58782148 C-34.85530758 340.19679693 -34.81865453 344.80341699 -34.73123932 349.41163635 C-34.64955999 353.75279739 -34.62469997 358.09064247 -34.64270782 362.43249893 C-34.6394158 364.02252891 -34.61566232 365.61267367 -34.5695343 367.20203781 C-34.43719761 371.99846855 -34.50828729 376.38225134 -36 381 C-38.80764093 383.81923416 -41.46729528 385.55863598 -44.98954391 387.39040375 C-54.26773407 392.35116042 -58.97472851 402.21351004 -62.3125 411.75 C-64.95140066 424.48333619 -62.96214461 437.42176228 -55.8125 448.3125 C-47.92948499 458.67159023 -38.43088124 465.28600543 -25.50390625 467.41015625 C-12.35757078 469.03246999 -0.97351422 465.29947141 9.796875 457.82421875 C18.84080576 450.3357158 23.96745162 440.42616791 25.74609375 428.953125 C26.91478172 415.36038491 23.38393098 404.20967466 15.15625 393.44921875 C11.62028588 389.43282472 7.57275428 386.43612018 2.91385269 383.83550549 C1 382 1 382 0.50780869 379.06960773 C0.51149586 377.86298072 0.51518303 376.6563537 0.51898193 375.41316223 C0.51556423 374.74089637 0.51214653 374.06863051 0.50862527 373.37599295 C0.5020252 371.11847655 0.52405546 368.86214356 0.54589844 366.60473633 C0.54702647 364.98855111 0.54639393 363.37236384 0.54412842 361.75617981 C0.54297859 357.36375677 0.56653115 352.97176877 0.59442425 348.57944703 C0.61939326 343.99103122 0.62177634 339.40260595 0.62652588 334.81413269 C0.63896892 326.12305781 0.67180845 317.43218368 0.71192384 308.74119729 C0.75660028 298.847753 0.77861819 288.95429923 0.79870558 279.06077921 C0.84053995 258.707074 0.91091776 238.35354964 1 218 C5.45430197 221.75485791 9.77815845 225.59886351 13.96704102 229.6472168 C14.51747574 230.17662369 15.06791046 230.70603058 15.63502502 231.2514801 C20.64590798 236.08112766 25.62038583 240.94816994 30.58302402 245.8273344 C33.9075842 249.09505929 37.24363204 252.3488926 40.60961914 255.57397461 C43.88199176 258.70998706 47.12133641 261.87683985 50.34013176 265.06778908 C51.56698891 266.27321102 52.80507009 267.46732235 54.05444527 268.64938927 C63.80573002 277.89822681 63.80573002 277.89822681 64.28837585 283.11988831 C63.78354324 285.92114049 63.0026296 288.34429083 62 291 C60.34900118 304.28450124 63.41095095 315.17786118 71 326 C73.29182272 328.79197732 73.29182272 328.79197732 76 331 C76.55042969 331.47953125 77.10085938 331.9590625 77.66796875 332.453125 C87.29590955 340.31428904 98.47531841 343.86231685 110.84765625 342.7421875 C124.06380748 340.69749462 134.78601074 335.03605916 142.875 324.1875 C149.971762 313.22434172 152.65925724 300.80012999 149.9296875 287.9375 C145.9241739 275.28142343 139.39209941 265.85153407 128 259 C124.7317338 257.44523908 121.44013978 256.12257193 118 255 C117.10667969 254.70609375 117.10667969 254.70609375 116.1953125 254.40625 C112.8908777 253.79475317 109.59758219 253.85633318 106.25 253.875 C105.57195312 253.87113281 104.89390625 253.86726563 104.1953125 253.86328125 C103.51726562 253.86457031 102.83921875 253.86585938 102.140625 253.8671875 C101.53766602 253.86831543 100.93470703 253.86944336 100.31347656 253.87060547 C97.74244385 253.94742052 97.74244385 253.94742052 94.29281616 254.86775208 C91.79998644 255.17281311 90.45589692 255.23658851 88.21098328 254.07158661 C86.35183372 252.55951977 84.68132932 250.95465496 83.00146484 249.24536133 C82.02929016 248.30889015 82.02929016 248.30889015 81.03747559 247.35350037 C78.90481842 245.2858669 76.80723598 243.18647588 74.7109375 241.08203125 C73.23879207 239.62865213 71.76568383 238.17624767 70.29165649 236.72477722 C67.20828 233.67722493 64.14304212 230.61269777 61.08837891 227.53637695 C57.1766711 223.60139727 53.2151838 219.72123732 49.23723412 215.85338306 C46.18094842 212.86724942 43.15763243 209.8493561 40.14274979 206.82147789 C38.69524329 205.37719947 37.23666262 203.94393058 35.7669487 202.52225685 C24.2853024 191.37223047 24.2853024 191.37223047 23.5791626 185.50082397 C24.07962458 182.4449325 24.88142794 179.87639172 26 177 C27.48551024 165.19839214 22.35032925 153.33905119 15.8125 143.8125 C7.44286499 135.44286499 -3.2284716 129.36018353 -15.234375 128.8671875 C-16.39453125 128.86976563 -17.5546875 128.87234375 -18.75 128.875 C-20.47476563 128.87113281 -20.47476563 128.87113281 -22.234375 128.8671875 C-25.74056886 128.8805755 -25.74056886 128.8805755 -28.08111477 129.44718075 C-31.34630105 130.10632176 -33.87356692 130.58911669 -36.90182686 129.00535774 C-38.83119225 127.3994068 -40.54083169 125.69707405 -42.26391602 123.87133789 C-42.92847305 123.20824112 -43.59303009 122.54514435 -44.27772522 121.86195374 C-46.46100543 119.67172523 -48.60676411 117.44827512 -50.75390625 115.22265625 C-52.26342536 113.6944793 -53.77517271 112.16850046 -55.28904724 110.64463806 C-59.26196468 106.63359239 -63.20393816 102.59343054 -67.14019775 98.54644775 C-71.16438675 94.41984661 -75.21713906 90.32151255 -79.26757812 86.22070312 C-87.20658968 78.17453791 -95.11319609 70.09732236 -103 62 C-101.40605086 58.12770599 -98.91938164 55.65308034 -95.99047852 52.69995117 C-95.48116287 52.1839183 -94.97184723 51.66788544 -94.44709778 51.13621521 C-92.76299008 49.43312737 -91.07145427 47.73766615 -89.37890625 46.04296875 C-88.19727714 44.85490711 -87.01579651 43.66669778 -85.8344574 42.47834778 C-83.35389438 39.98580862 -80.86923041 37.49743986 -78.38208008 35.01147461 C-75.21826732 31.84786399 -72.06837888 28.6707835 -68.92199802 25.48984814 C-66.48285615 23.02829314 -64.03449864 20.57606017 -61.583601 18.12621498 C-60.41994458 16.96022 -59.25947871 15.79103073 -58.10247993 14.61842918 C-41.92917836 -1.75226483 -22.16714957 -12.66067608 0 0 Z " fill="#DD4C36" transform="translate(320,5)"/>
</svg>
